<svg xmlns="http://www.w3.org/2000/svg" width="1024" height="1024" viewBox="0 0 1024 1024" version="1.1"><path d="M 339.500 306.993 C 325.642 307.941, 326.412 307.817, 327.550 308.923 C 328.072 309.430, 331.425 310.582, 335 311.483 C 360.705 317.960, 386.584 332.234, 405.870 350.571 C 434.349 377.651, 468.907 439.078, 499.499 517 C 516.461 560.204, 554 666.539, 554 671.382 C 554 675.057, 555.850 672.590, 557.475 666.750 C 558.431 663.313, 563.711 647.675, 569.207 632 C 598.290 549.063, 620.008 496.093, 658.996 413 C 685.803 355.868, 691.339 346.340, 706.368 331.459 C 715.950 321.971, 722.485 317.830, 735.419 313.046 C 739.224 311.639, 742.506 309.982, 742.712 309.364 C 742.942 308.673, 740.953 307.975, 737.541 307.548 C 729.035 306.486, 606.782 306.770, 603.948 307.859 C 601.109 308.950, 600.832 308.805, 613 312.592 C 637.172 320.113, 649.743 332.166, 653.060 351 C 655.923 367.252, 649.149 396.150, 634.074 432 C 628.141 446.111, 580.999 542.830, 580 542.941 C 579.725 542.972, 578.514 540.635, 577.309 537.749 C 576.104 534.862, 570.551 522.375, 564.969 510 C 539.393 453.302, 505.901 377.491, 502.065 367.617 C 497.013 354.612, 494.610 344.003, 495.474 338.509 C 497.659 324.600, 508.635 316.229, 532.877 309.982 C 536.234 309.117, 536.980 308.580, 536.077 307.677 C 534.712 306.312, 358.419 305.698, 339.500 306.993 M 289.250 336.802 C 286.363 336.969, 284 337.467, 284 337.911 C 284 338.354, 286.363 340.291, 289.250 342.215 C 311.737 357.199, 327.321 383.954, 332.511 416.488 C 333.302 421.445, 334.875 434.929, 336.008 446.454 C 337.140 457.978, 338.764 470.803, 339.617 474.954 C 346.228 507.147, 363.987 529.367, 397.023 546.779 C 409.078 553.133, 421.033 557.622, 442.976 564.034 C 452.588 566.842, 464.229 570.704, 468.844 572.614 C 473.460 574.525, 477.581 575.956, 478.003 575.794 C 478.425 575.632, 475.053 570.775, 470.510 565 C 450.710 539.832, 432.965 512.586, 419.366 486.470 C 412.606 473.488, 402.540 451, 403.489 451 C 404.453 451, 418.859 468.982, 433.132 488 C 455.268 517.496, 473.991 545.627, 509.006 602 C 524.529 626.992, 522.845 624.489, 523.616 623.718 C 523.954 623.379, 523.758 621.842, 523.179 620.301 C 520.113 612.140, 476.123 506.197, 471.981 497 C 469.876 492.325, 464.800 480.850, 460.701 471.500 C 438.945 421.868, 426.297 401.190, 404.048 378.883 C 386.556 361.345, 370.015 351.233, 346.500 343.700 C 330.080 338.441, 307.678 335.741, 289.250 336.802 M 395.624 571.577 C 377.092 575.714, 365.247 582.492, 350.500 597.400 C 337.867 610.171, 330.777 620.865, 323.474 638.166 C 318.879 649.054, 318.499 651.561, 321.798 649.224 C 324.826 647.078, 333.337 642.632, 340 639.714 C 367.629 627.614, 407.763 626.975, 450.096 637.961 C 489.718 648.244, 520.373 663.971, 547.827 688.100 C 551.497 691.326, 554.823 693.973, 555.219 693.983 C 557.194 694.030, 549.526 681.210, 539.977 668.500 C 517.998 639.243, 487.131 615.449, 457 604.537 C 438.206 597.731, 415.070 594.716, 397.500 596.785 C 393.100 597.303, 389.364 597.615, 389.198 597.478 C 388.422 596.839, 405.028 590.665, 411.370 589.235 C 422.508 586.723, 440.173 587.198, 452.201 590.332 C 465.472 593.790, 481.779 600.851, 492.531 607.795 C 504.678 615.640, 504.063 615.301, 503.406 613.802 C 502.508 611.753, 488.055 599.402, 478.860 592.826 C 468.267 585.251, 451.117 576.780, 439.500 573.386 C 427.992 570.024, 406.545 569.140, 395.624 571.577" stroke="none" fill="#ffffff" fill-rule="evenodd"/></svg>